<svg id="visual" viewBox="0 0 960 540" width="960" height="540" xmlns="http://www.w3.org/2000/svg" xmlns:xlink="http://www.w3.org/1999/xlink" version="1.1"><rect x="0" y="0" width="960" height="540" fill="#FFFFFF"></rect><path d="M0 171L17.8 174.8C35.7 178.7 71.3 186.3 106.8 187.8C142.3 189.3 177.7 184.7 213.2 180C248.7 175.3 284.3 170.7 320 167.7C355.7 164.7 391.3 163.3 426.8 168.7C462.3 174 497.7 186 533.2 180.8C568.7 175.7 604.3 153.3 640 158.7C675.7 164 711.3 197 746.8 202C782.3 207 817.7 184 853.2 167.3C888.7 150.7 924.3 140.3 942.2 135.2L960 130L960 0L942.2 0C924.3 0 888.7 0 853.2 0C817.7 0 782.3 0 746.8 0C711.3 0 675.7 0 640 0C604.3 0 568.7 0 533.2 0C497.7 0 462.3 0 426.8 0C391.3 0 355.7 0 320 0C284.3 0 248.7 0 213.2 0C177.7 0 142.3 0 106.8 0C71.3 0 35.7 0 17.8 0L0 0Z" fill="#ff6f61"></path><path d="M0 113L17.8 110.8C35.7 108.7 71.3 104.3 106.8 115C142.3 125.7 177.7 151.3 213.2 150.7C248.7 150 284.3 123 320 120.2C355.7 117.3 391.3 138.7 426.8 139.2C462.3 139.7 497.7 119.3 533.2 117.3C568.7 115.3 604.3 131.7 640 140.3C675.7 149 711.3 150 746.8 145.2C782.3 140.3 817.7 129.7 853.2 129.3C888.7 129 924.3 139 942.2 144L960 149L960 0L942.2 0C924.3 0 888.7 0 853.2 0C817.7 0 782.3 0 746.8 0C711.3 0 675.7 0 640 0C604.3 0 568.7 0 533.2 0C497.7 0 462.3 0 426.8 0C391.3 0 355.7 0 320 0C284.3 0 248.7 0 213.2 0C177.7 0 142.3 0 106.8 0C71.3 0 35.7 0 17.8 0L0 0Z" fill="#ef5663"></path><path d="M0 132L17.8 120.3C35.7 108.7 71.3 85.3 106.8 76.7C142.3 68 177.7 74 213.2 83.2C248.7 92.3 284.3 104.7 320 111.8C355.7 119 391.3 121 426.8 113.7C462.3 106.3 497.7 89.7 533.2 78.7C568.7 67.7 604.3 62.3 640 71.5C675.7 80.7 711.3 104.3 746.8 106.5C782.3 108.7 817.7 89.3 853.2 82.3C888.7 75.3 924.3 80.7 942.2 83.3L960 86L960 0L942.2 0C924.3 0 888.7 0 853.2 0C817.7 0 782.3 0 746.8 0C711.3 0 675.7 0 640 0C604.3 0 568.7 0 533.2 0C497.7 0 462.3 0 426.8 0C391.3 0 355.7 0 320 0C284.3 0 248.7 0 213.2 0C177.7 0 142.3 0 106.8 0C71.3 0 35.7 0 17.8 0L0 0Z" fill="#dc3d65"></path><path d="M0 77L17.8 69.3C35.7 61.7 71.3 46.3 106.8 38.5C142.3 30.7 177.7 30.3 213.2 30.5C248.7 30.7 284.3 31.3 320 36C355.7 40.7 391.3 49.3 426.8 53.2C462.3 57 497.7 56 533.2 59.2C568.7 62.3 604.3 69.7 640 68.5C675.7 67.3 711.3 57.7 746.8 52.7C782.3 47.7 817.7 47.3 853.2 48.2C888.7 49 924.3 51 942.2 52L960 53L960 0L942.2 0C924.3 0 888.7 0 853.2 0C817.7 0 782.3 0 746.8 0C711.3 0 675.7 0 640 0C604.3 0 568.7 0 533.2 0C497.7 0 462.3 0 426.8 0C391.3 0 355.7 0 320 0C284.3 0 248.7 0 213.2 0C177.7 0 142.3 0 106.8 0C71.3 0 35.7 0 17.8 0L0 0Z" fill="#c62368"></path></svg>